<?xml version="1.0" encoding="UTF-8" standalone="no"?>
<!-- Created with Inkscape (http://www.inkscape.org/) -->

<svg
   width="128"
   height="128"
   viewBox="0 0 128 128"
   version="1.1"
   id="svg1"
   xml:space="preserve"
   inkscape:version="1.4 (e7c3feb100, 2024-10-09)"
   sodipodi:docname="icon.svg"
   inkscape:export-filename="icon.png"
   inkscape:export-xdpi="384"
   inkscape:export-ydpi="384"
   xmlns:inkscape="http://www.inkscape.org/namespaces/inkscape"
   xmlns:sodipodi="http://sodipodi.sourceforge.net/DTD/sodipodi-0.dtd"
   xmlns="http://www.w3.org/2000/svg"
   xmlns:svg="http://www.w3.org/2000/svg"><sodipodi:namedview
     id="namedview1"
     pagecolor="#ffffff"
     bordercolor="#000000"
     borderopacity="0.25"
     inkscape:showpageshadow="2"
     inkscape:pageopacity="0.0"
     inkscape:pagecheckerboard="0"
     inkscape:deskcolor="#d1d1d1"
     inkscape:document-units="px"
     inkscape:zoom="9.157581"
     inkscape:cx="26.644591"
     inkscape:cy="76.985396"
     inkscape:window-width="3832"
     inkscape:window-height="2324"
     inkscape:window-x="0"
     inkscape:window-y="0"
     inkscape:window-maximized="1"
     inkscape:current-layer="layer1" /><defs
     id="defs1" /><g
     inkscape:label="Layer 1"
     inkscape:groupmode="layer"
     id="layer1"><rect
       style="fill:#1f304a;fill-opacity:1;stroke-width:1.99999"
       id="rect1"
       width="128"
       height="128"
       x="0"
       y="0" /><path
       style="fill:#77bdf0;stroke-width:0.0999931"
       d="m 49.10508,124.26527 c -0.216972,-0.30971 -0.197965,-0.51523 0.140443,-1.51624 1.089241,-3.22257 1.011486,-5.65564 -0.224468,-7.0237 -0.442676,-0.48997 -2.273419,-1.76215 -7.271214,-5.05264 -5.112071,-3.36575 -5.66462,-3.76262 -6.552215,-4.70608 -1.407203,-1.49584 -2.249787,-2.99545 -2.80704,-4.99604 -0.214944,-0.77153 -0.268038,-1.214649 -0.309353,-2.5813 -0.04295,-1.427253 -0.02055,-1.79156 0.165531,-2.699823 0.781098,-3.806384 3.232731,-6.698716 6.740969,-7.952594 1.287403,-0.460138 2.37429,-0.646821 3.76584,-0.646821 3.103419,0 5.207522,0.767663 7.778543,2.837902 1.271752,1.024042 5.411212,5.496656 10.563485,11.413726 3.398467,3.90287 4.010249,4.51709 4.967722,4.98721 1.240445,0.60911 2.190753,0.79317 3.779652,0.73208 3.355088,-0.12902 5.760376,-1.62459 7.112947,-4.42266 1.751355,-3.623056 1.080236,-7.707608 -1.747367,-10.634507 -1.938061,-2.006108 -4.381407,-2.989625 -7.910413,-3.184127 L 66.354495,88.624989 62.698414,86.274844 C 54.134858,80.770159 49.884028,77.185429 48.234568,76.028555 l -1.772865,-1.213418 -0.992845,-0.02432 c -2.687356,-0.06582 -5.946775,-0.740575 -8.379379,-1.904382 -3.137075,-1.500802 -5.727946,-4.038628 -7.192439,-7.045008 -0.514286,-1.055784 -1.059877,-2.653154 -1.315027,-3.849741 -0.280717,-1.316438 -0.253398,-4.77867 0.0491,-6.168418 0.426917,-1.964447 1.266328,-3.890959 2.450609,-5.624659 1.115633,-1.633017 2.96776,-3.206364 4.988384,-4.237403 3.243063,-1.654831 7.484007,-2.031263 11.477988,-1.018832 2.721512,0.68985 4.774158,1.849711 7.457508,4.21375 0.553369,0.487502 2.285796,2.010248 3.849733,3.383876 3.379031,2.967701 10.037437,8.874756 12.849796,11.399807 7.319602,6.571803 7.68299,6.874799 8.992593,7.497858 1.073996,0.51092 1.924969,0.692459 3.249817,0.693227 1.42572,7.65e-4 2.148604,-0.192653 3.14127,-0.840657 3.152113,-2.057729 3.909579,-6.803387 1.64496,-10.307113 -0.218421,-0.338011 -0.631018,-0.861986 -0.916855,-1.164389 -0.547129,-0.578945 -0.606671,-0.627877 -5.269313,-4.331586 -6.044374,-4.801326 -8.337027,-6.74998 -10.934853,-9.294384 -2.638545,-2.584371 -4.095671,-4.319277 -5.219594,-6.214709 -1.155328,-1.948559 -1.84967,-3.667835 -2.255411,-5.584493 -0.181074,-0.855393 -0.22373,-1.392698 -0.230487,-2.899801 0,-1.01743 0.03185,-2.323157 0.07979,-2.901612 l 0.08796,-1.051731 -0.538228,-0.659713 c -1.008723,-1.236537 -4.526479,-5.433852 -5.242202,-6.255002 l -0.713679,-0.818724 -0.115294,-1.581113 c -0.06341,-0.86961 -0.144532,-2.326247 -0.180161,-3.236966 l -0.06446,-1.655855 1.678723,-2.743846 c 2.423199,-3.9606782 4.15369,-6.7161952 4.349603,-6.926066 0.160821,-0.1722759 0.348861,-0.1784597 3.36583,-0.1104997 l 3.195491,0.072007 0.237244,0.3604888 c 0.448302,0.6813011 3.665684,5.8616573 4.732623,7.6199119 l 1.067756,1.759786 -0.01225,1.83996 c -0.01042,1.011981 -0.04092,2.320468 -0.07468,2.907749 l -0.06239,2.160187 c 0,0 -4.666579,4.297244 -6.713982,7.236276 0,0 4.82e-4,0.21681 0.200248,1.221922 1.250829,6.293982 1.115114,7.856827 5.560465,12.399508 3.14587,3.21486 7.439195,6.806005 14.302213,11.963128 2.703915,2.031765 4.195314,3.70069 5.379086,6.01904 1.51718,2.971641 1.851103,6.935267 0.869489,10.322388 -1.011284,3.489962 -3.591821,6.412924 -6.846033,7.754724 C 84.667902,78.749314 79.985104,78.13039 76.098849,75.557189 75.283465,75.017323 74.860536,74.656218 71.399053,71.544618 69.749184,70.061451 67.544311,68.07953 66.49947,67.140354 60.453561,61.706299 51.390272,53.732723 50.000563,52.625191 c -2.509332,-1.999814 -5.942582,-2.812678 -9.149428,-2.166233 -3.41074,0.68753 -5.778483,3.094751 -6.493081,6.601267 -0.697004,3.420459 0.539963,7.008282 3.166742,9.184806 2.185539,1.810897 5.281692,2.740132 9.144007,2.744376 l 1.554389,0.237119 2.495348,1.428693 c 1.386754,0.793979 3.439282,2.416009 4.731597,3.335412 1.292417,0.919402 2.732359,1.939773 3.199787,2.267475 0.467536,0.327692 1.569971,1.11409 2.449897,1.747541 0.879927,0.633451 2.747293,1.952651 4.14969,2.931542 1.402393,0.978906 2.627904,1.847679 2.723253,1.930606 0.108528,0.09444 0.688102,0.216845 1.549814,0.327427 2.355264,0.302212 3.674584,0.679345 5.577047,1.594124 0.660377,0.317528 1.627771,0.862155 2.149835,1.210236 1.129341,0.752994 2.797828,2.389012 3.62517,3.554438 2.849088,4.013735 3.624967,9.188295 2.075969,13.84634 -1.973871,5.93561 -7.090646,9.61463 -13.351394,9.59975 -2.945869,-0.007 -5.065829,-0.60567 -7.316024,-2.06602 -1.173745,-0.76179 -2.099094,-1.68161 -4.421311,-4.39517 -4.934059,-5.76542 -10.113751,-11.383177 -11.357678,-12.318296 -1.165046,-0.87574 -2.201395,-1.230789 -3.59274,-1.230789 -2.568261,0 -4.285343,1.288949 -4.905617,3.682453 -0.31592,1.219258 -0.167587,2.517801 0.430291,3.767032 0.623958,1.30378 1.12914,1.76645 3.964927,3.63142 1.374875,0.90422 2.949756,1.93995 3.499746,2.30163 1.972744,1.29732 2.921111,2.06886 4.556452,3.70686 1.844556,1.84764 2.427284,2.65915 2.905255,4.04586 0.405638,1.17677 0.521956,2.15497 0.393463,3.30794 -0.246447,2.20968 -1.36792,4.47571 -3.18209,6.42971 -0.507944,0.54701 -0.6259,0.62496 -0.946115,0.62496 -0.264658,0 -0.40891,-0.0614 -0.521448,-0.22224 z M 63.048413,14.39495 c 0.17462,-0.1746 0.20002,-0.333311 0.20002,-1.249908 0,-1.399091 -0.04709,-1.449907 -1.327712,-1.449907 -1.353597,0 -1.372116,0.01971 -1.372116,1.448434 0,1.463389 -0.01042,1.451377 1.307052,1.451377 0.859461,0 1.019672,-0.02701 1.192769,-0.199979 z m 9.277103,0.0443 c 0.207576,-0.145342 0.222314,-0.231002 0.222314,-1.294238 0,-1.426959 -0.02156,-1.449904 -1.349911,-1.449904 -1.328325,0 -1.349912,0.02315 -1.349912,1.44843 0,1.460065 -0.01042,1.45138 1.284742,1.45138 0.716647,0 1.028778,-0.04072 1.192774,-0.155675 z m 19.670968,87.05524 c -0.266719,-0.10915 -0.511728,-0.39169 -0.646054,-0.74499 -0.143038,-0.37624 0.01743,-0.884256 0.366762,-1.15878 0.24841,-0.195414 0.39582,-0.201556 4.829913,-0.201556 2.515574,0 4.714415,-0.02799 4.886185,-0.06252 l 0.31254,-0.06252 V 93.17703 87.089944 h -3.542103 -3.542102 l -0.304237,-0.256005 c -0.379038,-0.31891 -0.480421,-0.78427 -0.277048,-1.271076 0.300151,-0.718323 -0.332284,-0.678732 10.37136,-0.649249 l 9.6097,0.0264 0.29178,0.326556 c 0.60974,0.682413 0.2351,1.645799 -0.71101,1.82832 -0.24594,0.04746 -2.50576,0.08819 -5.02184,0.09064 l -4.57467,0.0041 v 6.743037 c 0,4.138442 -0.0378,6.842103 -0.0972,6.999483 -0.0532,0.14103 -0.2448,0.34629 -0.42497,0.45611 -0.31714,0.19336 -0.50089,0.19946 -5.82708,0.19371 -3.024849,-0.003 -5.589631,-0.0428 -5.699606,-0.0878 z M 24.451048,93.914387 C 23.782484,93.580401 23.751384,93.40948 23.751179,90.064799 v -2.9748 h -4.841885 -4.841982 l -0.307745,-0.307682 c -0.252881,-0.252881 -0.307617,-0.388223 -0.307617,-0.759951 0,-0.381021 0.05318,-0.505825 0.339959,-0.792247 l 0.33996,-0.33998 h 5.587378 c 6.130005,0 5.857874,-0.0264 6.182383,0.601062 0.124715,0.241106 0.14947,0.903015 0.14947,3.998633 0,4.071019 -0.01042,4.144545 -0.596742,4.448001 -0.378117,0.19558 -0.573931,0.190973 -1.003199,-0.02348 z M 14.001734,77.574575 c -0.731172,-0.402075 -0.742529,-1.494642 -0.0193,-1.908024 0.157253,-0.08994 1.073689,-0.140007 3.219636,-0.175762 l 2.999781,-0.05003 0.02671,-3.120695 0.0267,-3.120686 -3.090934,-0.02897 c -2.927145,-0.02766 -3.1027,-0.0397 -3.314984,-0.22907 -0.123282,-0.109981 -0.287568,-0.350085 -0.365225,-0.533537 -0.180058,-0.425672 -0.03272,-0.931434 0.350903,-1.201992 0.250437,-0.176778 0.558382,-0.191968 4.76751,-0.235218 2.474854,-0.02542 4.657121,-0.011 4.849657,0.03218 0.802072,0.179414 1.08392,1.167628 0.514798,1.804608 -0.24664,0.276019 -0.364716,0.324868 -0.874907,0.361801 l -0.589792,0.04266 0.01042,3.264524 c 0.01042,4.239963 -0.02444,4.660713 -0.389068,4.974584 l -0.278786,0.239819 -3.819141,-0.0031 c -2.583917,-0.002 -3.883799,-0.03856 -4.019151,-0.113011 z m 99.088576,-1.124431 c -0.16766,-0.07305 -0.39264,-0.262471 -0.49996,-0.421056 -0.18856,-0.278366 -0.19622,-0.536107 -0.22283,-7.46283 l -0.0276,-7.174514 -4.72219,-4.12e-4 c -4.44351,-3.99e-4 -4.74029,-0.01162 -5.03002,-0.188172 -0.61301,-0.373792 -0.69567,-1.23717 -0.16585,-1.731919 l 0.27377,-0.255585 5.39965,-0.05238 c 3.94099,-0.03826 5.49327,-0.02123 5.74616,0.06313 0.20153,0.06721 0.44206,0.257645 0.57495,0.455244 l 0.22846,0.339765 v 7.809687 c 0,7.656756 0,7.816158 -0.20218,8.140681 -0.11102,0.182029 -0.35683,0.395776 -0.54641,0.474958 -0.41157,0.171985 -0.41863,0.172027 -0.80575,0.0031 z M 14.20174,60.019908 c -0.109981,-0.02671 -0.284932,-0.122827 -0.388758,-0.21337 -0.489322,-0.426795 -0.47142,0.178936 -0.459861,-15.546769 0.01038,-8.093725 0.03685,-16.443456 0.06958,-18.554979 l 0.05831,-3.839112 0.273155,-0.305685 0.273058,-0.305687 9.786989,0.02864 c 5.382873,0.01577 12.13683,-0.0041 15.008939,-0.04469 l 5.221944,-0.07335 0.02768,-4.993141 0.02766,-4.993131 0.326557,-0.291719 c 0.451675,-0.403471 0.995119,-0.403471 1.446693,-1.1e-5 l 0.326658,0.291722 0.05014,7.682747 c 0.02768,4.225517 0.02768,9.422848 0,11.549624 l -0.05014,3.866864 -0.241041,0.256325 c -0.458121,0.487318 -1.28096,0.430806 -1.712276,-0.117618 -0.189873,-0.241396 -0.196638,-0.432006 -0.196638,-5.586091 V 23.494321 H 39.703766 35.35704 l -0.02768,4.391731 -0.02768,4.391734 -0.2348,0.249921 c -0.523594,0.557143 -1.204639,0.559168 -1.725369,0.0052 L 33.10182,32.27787 33.07414,27.886139 33.04646,23.49441 h -8.755564 -8.755555 l 0.03376,7.624479 0.03376,7.624484 4.074698,0.02607 4.074699,0.02607 v -2.754147 c 0,-2.954738 0.04295,-3.256385 0.511624,-3.584597 0.299251,-0.209606 0.977319,-0.209606 1.276561,0 0.48206,0.337645 0.511628,0.582706 0.511628,4.238397 0,2.82792 -0.02542,3.457123 -0.149367,3.696887 -0.322159,0.622872 -0.123074,0.601058 -5.484357,0.601058 h -4.889353 l 0.03683,8.39925 0.03685,8.399234 3.834591,1.95e-4 c 3.337387,1.93e-4 3.879195,0.02123 4.178129,0.163207 0.455971,0.216363 0.636745,0.496036 0.636128,0.984143 0,0.592326 -0.329418,0.95697 -0.955322,1.059675 -0.521242,0.08554 -8.750641,0.10461 -9.093465,0.02092 z m 88.0638,-9.094734 c -0.61803,-0.304591 -0.61977,-0.317365 -0.61977,-4.632406 0,-4.199736 0.0104,-4.284946 0.52166,-4.643615 0.43592,-0.305332 1.16842,-0.144967 1.55002,0.339314 0.09,0.114256 0.12265,1.017749 0.125,3.463113 v 3.308528 l 5.07473,0.0659 5.07463,0.0659 0.32492,0.348829 c 0.53751,0.576948 0.4128,1.346025 -0.27602,1.702249 -0.24644,0.127433 -1.11082,0.149076 -5.86861,0.147146 -4.94859,-0.002 -5.61685,-0.02054 -5.90975,-0.165013 z m 10.5912,-9.895119 c -0.4709,-0.329872 -0.51162,-0.622885 -0.51162,-3.683474 v -2.853018 h -3.853 c -4.13373,0 -4.3408,-0.02252 -4.68342,-0.511657 -0.09,-0.129155 -0.16308,-0.427673 -0.16308,-0.670513 0,-0.364471 0.0573,-0.494604 0.34006,-0.777691 l 0.33996,-0.33998 h 4.00626 4.00626 l 0.0286,-5.092428 c 0.0276,-5.00062 0.0327,-5.097513 0.23917,-5.374563 0.11591,-0.155199 0.37188,-0.34347 0.56882,-0.418408 0.31847,-0.121249 0.40002,-0.11575 0.73915,0.04995 0.78038,0.381177 0.73578,-0.254848 0.70682,10.068748 l -0.0254,9.182595 -0.32656,0.291753 c -0.38119,0.340553 -1.0253,0.399275 -1.4116,0.128719 z M 90.566365,39.52996 c -0.625593,-0.31592 -0.598996,0.03355 -0.635414,-8.364178 l -0.03377,-7.671471 h -3.623746 -3.623739 l -0.304977,-0.274989 c -0.544363,-0.490683 -0.500476,-1.396101 0.08696,-1.795 0.251145,-0.170533 0.796956,-0.178979 10.544864,-0.162626 11.445967,0.01929 10.625787,-0.03337 10.932607,0.700848 0.18997,0.454716 0.10342,0.829776 -0.27541,1.192721 l -0.3016,0.28905 -5.593109,0.02735 -5.593106,0.02735 v 7.69851 7.698507 l -0.325021,0.348779 c -0.391725,0.420454 -0.802274,0.513663 -1.255076,0.284994 z"
       id="path1"
       sodipodi:nodetypes="ccssccccsssccsssscsscscsscccsscsccscccccsccccccsccsscccccccccsccccssccsscsccsccssscsscscsccscssscsccsccsssssssssssssscscsccccccscccssccssccccccccccsccsssccccccccccsccscsccccccccccccscccssccsccccccccccccccccsccccccssccccccscccccccccscsscsccccccscccscscccccsccccscscsccccccccccsccccccccsccccccccccc" /></g></svg>
